<svg width="16" height="16" viewBox="0 0 16 16" fill="none" xmlns="http://www.w3.org/2000/svg">
<path d="M5.00001 10.1667C4.87335 10.1667 4.74668 10.12 4.64668 10.02C4.45335 9.82667 4.45335 9.50667 4.64668 9.31334L6.78001 7.18001C6.88668 7.07334 7.02668 7.02001 7.18001 7.03334C7.32668 7.04667 7.46001 7.12667 7.54668 7.25334L8.27335 8.34667L10.64 5.98001C10.8333 5.78667 11.1533 5.78667 11.3467 5.98001C11.54 6.17334 11.54 6.49334 11.3467 6.68667L8.54668 9.48667C8.44001 9.59334 8.30001 9.64667 8.14668 9.63334C8.00001 9.62001 7.86668 9.54001 7.78001 9.41334L7.05335 8.32001L5.35335 10.02C5.25335 10.12 5.12668 10.1667 5.00001 10.1667Z" fill="#037400"/>
<path d="M11 8.16666C10.7267 8.16666 10.5 7.93999 10.5 7.66666V6.83333H9.66666C9.39332 6.83333 9.16666 6.60666 9.16666 6.33333C9.16666 6.05999 9.39332 5.83333 9.66666 5.83333H11C11.2733 5.83333 11.5 6.05999 11.5 6.33333V7.66666C11.5 7.93999 11.2733 8.16666 11 8.16666Z" fill="#037400"/>
<path d="M10 15.1667H6.00001C2.38001 15.1667 0.833344 13.62 0.833344 10V6C0.833344 2.38 2.38001 0.833328 6.00001 0.833328H10C13.62 0.833328 15.1667 2.38 15.1667 6V10C15.1667 13.62 13.62 15.1667 10 15.1667ZM6.00001 1.83333C2.92668 1.83333 1.83334 2.92666 1.83334 6V10C1.83334 13.0733 2.92668 14.1667 6.00001 14.1667H10C13.0733 14.1667 14.1667 13.0733 14.1667 10V6C14.1667 2.92666 13.0733 1.83333 10 1.83333H6.00001Z" fill="#037400"/>
</svg>
