<svg width="17" height="16" viewBox="0 0 17 16" fill="none" xmlns="http://www.w3.org/2000/svg">
<path d="M5.5 5.83333C5.37334 5.83333 5.24667 5.87999 5.14667 5.97999C4.95334 6.17333 4.95334 6.49333 5.14667 6.68666L7.28 8.81999C7.38667 8.92666 7.52667 8.97999 7.68 8.96666C7.82667 8.95333 7.96 8.87333 8.04667 8.74666L8.77334 7.65333L11.14 10.02C11.3333 10.2133 11.6533 10.2133 11.8467 10.02C12.04 9.82666 12.04 9.50666 11.8467 9.31333L9.04667 6.51333C8.94 6.40666 8.8 6.35333 8.64667 6.36666C8.5 6.37999 8.36667 6.45999 8.28 6.58666L7.55334 7.67999L5.85334 5.97999C5.75334 5.87999 5.62667 5.83333 5.5 5.83333Z" fill="#740000"/>
<path d="M11.5 7.83334C11.2267 7.83334 11 8.06001 11 8.33334L11 9.16667L10.1667 9.16667C9.89334 9.16667 9.66667 9.39334 9.66667 9.66667C9.66667 9.94001 9.89334 10.1667 10.1667 10.1667L11.5 10.1667C11.7733 10.1667 12 9.94001 12 9.66667L12 8.33334C12 8.06001 11.7733 7.83334 11.5 7.83334Z" fill="#740000"/>
<path d="M10.5 0.833339L6.5 0.833338C2.88 0.833338 1.33334 2.38 1.33334 6L1.33334 10C1.33334 13.62 2.88 15.1667 6.5 15.1667L10.5 15.1667C14.12 15.1667 15.6667 13.62 15.6667 10L15.6667 6.00001C15.6667 2.38001 14.12 0.833339 10.5 0.833339ZM6.5 14.1667C3.42667 14.1667 2.33334 13.0733 2.33334 10L2.33334 6C2.33334 2.92667 3.42667 1.83334 6.5 1.83334L10.5 1.83334C13.5733 1.83334 14.6667 2.92667 14.6667 6.00001L14.6667 10C14.6667 13.0733 13.5733 14.1667 10.5 14.1667L6.5 14.1667Z" fill="#740000"/>
</svg>
